<?xml version="1.0" encoding="UTF-8" standalone="no"?>
<svg width="30px" height="48px" viewBox="0 0 30 48" version="1.1" xmlns="http://www.w3.org/2000/svg" xmlns:xlink="http://www.w3.org/1999/xlink">
    <defs></defs>
    <g id="Page-1" stroke="none" stroke-width="1" fill="none" fill-rule="evenodd" stroke-linecap="round" stroke-linejoin="round">
        <g id="BestRes-Landing-Scrolled" transform="translate(-163.000000, -148.000000)" stroke="#4990E2" stroke-width="2">
            <g id="balloon" transform="translate(164.000000, 149.000000)">
                <path d="M28,14.2469928 C28,6.37869527 21.7318889,0 14,0 C6.26811111,0 0,6.37869527 0,14.2469928 C0,22.9534884 9.38777778,28.7876319 12.7858889,31.5088075 L10.1111111,36.4089816 L17.8888889,36.4089816 L15.2141111,31.5088075 C18.6122222,28.7876319 28,22.9534884 28,14.2469928 L28,14.2469928 Z" id="Stroke-3785"></path>
                <path d="M14,36.4089816 L14,41.9494787 C14,43.2602021 15.0445556,44.3239775 16.3333333,44.3239775 C17.6221111,44.3239775 18.6666667,43.2602021 18.6666667,41.9494787 C18.6666667,40.6371724 19.7112222,39.57498 21,39.57498 C22.2887778,39.57498 23.3333333,40.6371724 23.3333333,41.9494787 L23.3333333,45.9069767" id="Stroke-3786"></path>
                <path d="M4.66666667,14.2469928 C4.66666667,9.00172494 8.84566667,4.74899759 14,4.74899759" id="Stroke-3787"></path>
            </g>
        </g>
    </g>
</svg>