<?xml version="1.0" encoding="UTF-8" standalone="no"?>
<svg width="20px" height="20px" viewBox="0 0 20 20" version="1.1" xmlns="http://www.w3.org/2000/svg" xmlns:xlink="http://www.w3.org/1999/xlink">
    <defs></defs>
    <g id="Page-1" stroke="none" stroke-width="1" fill="none" fill-rule="evenodd" stroke-linecap="round">
        <g id="day" stroke="#CCCCCC">
            <path d="M15.478887,9.58584348 C15.478887,12.8281913 12.850887,15.4554087 9.60932174,15.4554087 C6.36697391,15.4554087 3.73975652,12.8281913 3.73975652,9.58584348 C3.73975652,6.34427826 6.36697391,3.71627826 9.60932174,3.71627826 C12.850887,3.71627826 15.478887,6.34427826 15.478887,9.58584348 L15.478887,9.58584348 Z" id="Stroke-7598"></path>
            <path d="M9.60893043,17.0435565 L9.60893043,18.6087739" id="Stroke-7599"></path>
            <path d="M15.0875826,15.0641043 L16.2614957,16.2380174" id="Stroke-7600"></path>
            <path d="M17.043713,9.60877391 L18.6089304,9.60877391" id="Stroke-7601"></path>
            <path d="M15.0875826,4.10758261 L16.2614957,2.93366957" id="Stroke-7602"></path>
            <path d="M9.60893043,2.1739913 L9.60893043,0.608773913" id="Stroke-7603"></path>
            <path d="M4.13106087,4.10758261 L2.95714783,2.93366957" id="Stroke-7604"></path>
            <path d="M2.17414783,9.60877391 L0.608930435,9.60877391" id="Stroke-7605"></path>
            <path d="M4.13106087,15.0641043 L2.95714783,16.2380174" id="Stroke-7606"></path>
        </g>
    </g>
</svg>