<?xml version="1.0" encoding="UTF-8" standalone="no"?>
<svg width="60px" height="47px" viewBox="0 0 60 47" version="1.1" xmlns="http://www.w3.org/2000/svg" xmlns:xlink="http://www.w3.org/1999/xlink">
    <defs></defs>
    <g id="Page-1" stroke="none" stroke-width="1" fill="none" fill-rule="evenodd">
        <g id="BestRes-Landing-Scrolled" transform="translate(-926.000000, -149.000000)" stroke="#4990E2" stroke-width="2">
            <g id="display" transform="translate(927.000000, 150.000000)">
                <path d="M58,34.5 C58,35.6 57.1,36.5 56,36.5 L2,36.5 C0.9,36.5 0,35.6 0,34.5 L0,2.5 C0,1.4 0.9,0.5 2,0.5 L56,0.5 C57.1,0.5 58,1.4 58,2.5 L58,34.5 L58,34.5 Z" id="Stroke-3707"></path>
                <path d="M54,32.5 L4,32.5 L4,4.5 L54,4.5 L54,32.5 Z" id="Stroke-3708"></path>
                <path d="M17,44.5 L41,44.5" id="Stroke-3709" stroke-linecap="round"></path>
                <path d="M24,36.5 L24,44.5" id="Stroke-3710"></path>
                <path d="M34,36.5 L34,44.5" id="Stroke-3711"></path>
            </g>
        </g>
    </g>
</svg>