<?xml version="1.0" encoding="UTF-8" standalone="no"?>
<svg width="22px" height="19px" viewBox="0 0 22 19" version="1.1" xmlns="http://www.w3.org/2000/svg" xmlns:xlink="http://www.w3.org/1999/xlink">
    <defs></defs>
    <g id="Page-1" stroke="none" stroke-width="1" fill="none" fill-rule="evenodd" stroke-linecap="round" stroke-linejoin="round">
        <g id="night" transform="translate(0.000000, 1.000000)" stroke="#999999">
            <path d="M10.5001385,8.5 C10.5001385,4.89104167 8.55752308,1.78854167 5.77306154,0.410125 C6.07490769,0.374 6.3816,0.354166667 6.69244615,0.354166667 C11.0892923,0.354166667 14.6539846,4.001375 14.6539846,8.5 C14.6539846,12.9993333 11.0892923,16.6458333 6.69244615,16.6458333 C6.3816,16.6458333 6.07490769,16.626 5.77306154,16.5905833 C8.55752308,15.2114583 10.5001385,12.1089583 10.5001385,8.5 L10.5001385,8.5 Z" id="Stroke-7659"></path>
            <path d="M0.5,10.5 L3.5,10.5 L0.5,13.5 L3.5,13.5" id="Stroke-4034"></path>
            <path d="M4.5,5.5 L6.5,5.5 L4.5,7.5 L6.5,7.5" id="Stroke-3970"></path>
            <path d="M17.5,9.5 L21.5,9.5 L17.5,13.5 L21.5,13.5" id="Stroke-3971"></path>
        </g>
    </g>
</svg>